<svg xmlns="http://www.w3.org/2000/svg" width="30" height="38" viewBox="0 0 30 38">
  <path d="M21.9898485,8.08333333 L19.6199242,10.4531818 C16.6536461,7.8969103 12.1963947,8.14619694 9.53366001,11.0172897 C6.87092529,13.8883826 6.95751561,18.3517597 9.72960427,21.117416 C12.5016929,23.8830722 16.9652592,23.9592934 19.8301584,21.289896 C22.6950577,18.6204986 22.9339889,14.1626801 20.3708333,11.2023485 L22.7397727,8.83333333 L25.3311364,9.48121212 C25.5118723,9.52639053 25.7030595,9.47341719 25.8347727,9.34166667 L29.7983333,5.37878788 C29.9433082,5.23382469 29.9917366,5.0182814 29.9227059,4.82523529 C29.8536753,4.63218918 29.6795532,4.49622693 29.4755303,4.47606061 L26.6293182,4.19454545 L26.3477273,1.34833333 C26.327561,1.14431041 26.1915987,0.97018837 25.9985526,0.901157698 C25.8055065,0.832127027 25.5899632,0.880555451 25.445,1.0255303 L21.4814394,4.98916667 C21.3497425,5.12087951 21.2968005,5.31202836 21.3419697,5.49272727 L21.9898485,8.08333333 Z M21.2373563,15.9593182 C21.2419985,18.950433 19.1660079,21.5423796 16.246082,22.191088 C13.3261562,22.8397964 10.3479446,21.3707221 9.08562205,18.6590194 C7.82329955,15.9473167 8.61651281,12.7226095 10.9927303,10.9059147 C13.3689477,9.08921977 16.6888127,9.16934596 18.9746212,11.0985606 L16.6353788,13.437803 C15.3244669,12.5209633 13.5301007,12.758961 12.5035229,13.9858363 C11.476945,15.2127116 11.5591612,17.0209243 12.6928408,18.1495765 C13.8265204,19.2782287 15.6350807,19.3524077 16.8573813,18.3203872 C18.079682,17.2883667 18.3097024,15.4929605 17.3870455,14.1861364 L19.725303,11.8484848 C20.7022051,12.9954302 21.2382991,14.453029 21.2373563,15.9596212 L21.2373563,15.9593182 Z M17.0424259,15.9593182 C17.0434859,16.9444891 16.3810498,17.8068728 15.4289119,18.0598478 C14.476774,18.3128227 13.4736565,17.8929624 12.9855935,17.0371836 C12.4975305,16.1814048 12.6468903,15.1042701 13.3493928,14.4135798 C14.0518953,13.7228895 15.1314076,13.5918149 15.9787879,14.0943182 L14.4878788,15.5852273 C14.280772,15.7923341 14.280772,16.1281205 14.4878788,16.3352273 C14.6949856,16.542334 15.030772,16.542334 15.2378788,16.3352273 L16.7313636,14.8416667 C16.9353271,15.1788635 17.0429154,15.5655367 17.0424259,15.9596212 L17.0424259,15.9593182 Z M25.2970455,8.37969697 L23.6143939,7.95909091 L26.3416667,5.23181818 L28.2557576,5.42121212 L25.2970455,8.37969697 Z M25.4025758,2.56757576 L25.5919697,4.48151515 L22.864697,7.20878788 L22.4440152,5.52613636 L25.4025758,2.56757576 Z"/>
  <path d="M7.94818182 23.605C9.27574258 24.8366665 10.0279076 26.5672723 10.0227273 28.3781818L10.0227273 33.2791667C10.0239797 34.3638033 10.9029391 35.2427627 11.9875758 35.2440152L14.4405303 35.2440152 14.4405303 36.75C14.4405303 37.0010385 14.6440372 37.2045455 14.8950758 37.2045455 15.1461143 37.2045455 15.3496212 37.0010385 15.3496212 36.75L15.3496212 35.2440152 17.8025758 35.2440152C18.887242 35.2428045 19.7662475 34.3638329 19.7675 33.2791667L19.7675 28.3712121C19.7808013 26.5405998 20.5514218 24.7971876 21.8962879 23.5551515 24.0499466 21.546638 25.239392 18.7113311 25.1633333 15.7674242 25.1108479 13.5789174 24.3533139 11.4658145 23.0034091 9.74242424 22.9036487 9.61421802 22.7430522 9.548996 22.5821495 9.57134081 22.4212468 9.59368562 22.2844996 9.70020022 22.2234489 9.85073853 22.1623982 10.0012768 22.1863254 10.1729528 22.2862121 10.3010606 23.5162762 11.871274 24.2066151 13.7966079 24.2545455 15.7906818 24.3235832 18.4740757 23.2392754 21.0583878 21.2762121 22.8891667 19.8625877 24.1993706 19.0029216 26.0001383 18.8730303 27.9231818L10.917197 27.9231818C10.8061556 26.0188074 9.96256476 24.2312604 8.56310606 22.9349242 5.72014404 20.3247309 4.77013407 16.2375053 6.17045531 12.6410289 7.57077656 9.04455243 11.0344651 6.67584105 14.8939394 6.67530303 14.9233333 6.67530303 14.9526515 6.67530303 14.9820455 6.67530303 16.9731566 6.69009106 18.9066398 7.34532542 20.4965152 8.54409091 20.697346 8.69471402 20.9822557 8.65401264 21.1328788 8.45318182 21.2835019 8.252351 21.2428005 7.9674413 21.0419697 7.81681818 19.2972163 6.50157394 17.1755026 5.78275504 14.9906061 5.76666667 14.9583838 5.76621212 14.9262121 5.76621212 14.8940909 5.76621212 10.65965 5.76653765 6.85932703 8.36525988 5.32291698 12.3111355 3.78650692 16.257011 4.82889256 20.7413442 7.94818182 23.605zM17.8023485 34.3349242L11.9873485 34.3349242C11.4046353 34.3341311 10.9324859 33.86188 10.9318182 33.2791667L10.9318182 33.0841667 16.1402273 33.0841667C16.3912658 33.0841667 16.5947727 32.8806597 16.5947727 32.6296212 16.5947727 32.3785827 16.3912658 32.1750758 16.1402273 32.1750758L10.9318182 32.1750758 10.9318182 30.9242424 12.2132576 30.9242424C12.4642961 30.9242424 12.667803 30.7207355 12.667803 30.469697 12.667803 30.2186584 12.4642961 30.0151515 12.2132576 30.0151515L10.9318182 30.0151515 10.9318182 28.8325758 18.8581818 28.8325758 18.8581818 30.0151515 13.7763636 30.0151515C13.5253251 30.0151515 13.3218182 30.2186584 13.3218182 30.469697 13.3218182 30.7207355 13.5253251 30.9242424 13.7763636 30.9242424L18.8581818 30.9242424 18.8581818 32.1749242 17.7033333 32.1749242C17.4522948 32.1749242 17.2487879 32.3784312 17.2487879 32.6294697 17.2487879 32.8805082 17.4522948 33.0840152 17.7033333 33.0840152L18.8581818 33.0840152 18.8581818 33.2790152C18.8575973 33.8619058 18.3852391 34.3342979 17.8023485 34.3349242zM15.2535606 3.99787879C15.5045991 3.99787879 15.7081061 3.79437186 15.7081061 3.54333333L15.7081061.522727273C15.7081061.27168875 15.5045991.0681818182 15.2535606.0681818182 15.0025221.0681818182 14.7990152.27168875 14.7990152.522727273L14.7990152 3.54333333C14.7990152 3.79437186 15.0025221 3.99787879 15.2535606 3.99787879zM26.2680303 14.4621212C26.0169918 14.4621212 25.8134848 14.6656281 25.8134848 14.9166667 25.8134848 15.1677052 26.0169918 15.3712121 26.2680303 15.3712121L29.2887879 15.3712121C29.5398264 15.3712121 29.7433333 15.1677052 29.7433333 14.9166667 29.7433333 14.6656281 29.5398264 14.4621212 29.2887879 14.4621212L26.2680303 14.4621212zM.500909091 15.3712121L3.52166667 15.3712121C3.77270519 15.3712121 3.97621212 15.1677052 3.97621212 14.9166667 3.97621212 14.6656281 3.77270519 14.4621212 3.52166667 14.4621212L.500909091 14.4621212C.249870568 14.4621212.0463636364 14.6656281.0463636364 14.9166667.0463636364 15.1677052.249870568 15.3712121.500909091 15.3712121zM6.31015152 6.97469697C6.48765667 7.15222304 6.77546634 7.15223999 6.95299242 6.97473484 7.13051849 6.79722969 7.13053545 6.50942002 6.9530303 6.33189394L4.59590909 3.97469697C4.41838301 3.7971709 4.13055638 3.7971709 3.95303031 3.97469697 3.77550423 4.15222305 3.77550423 4.44004968 3.9530303 4.61757576L6.31015152 6.97469697z"/>
</svg>
