<svg xmlns="http://www.w3.org/2000/svg" width="30" height="37" viewBox="0 0 30 37">
  <g fill="#00D69F">
    <path d="M3.796875,36.0326087 L16.8403533,36.0326087 C18.9104526,36.0302725 20.5880171,34.3527081 20.5903533,32.2826087 L20.5903533,27.8804348 L21.4878261,27.8804348 C21.7397992,27.8804647 21.950566,27.6890702 21.9747554,27.4382609 L22.1377989,25.7480707 C22.8440669,25.5605386 23.5208411,25.2757486 24.1486957,24.901875 L25.4463587,25.9764946 C25.6407595,26.137443 25.9256989,26.1240595 26.1041576,25.9455978 L28.0429891,24.0067663 C28.2214264,23.828286 28.2347746,23.5433476 28.0738043,23.3489674 L26.9966576,22.0483696 C27.3693083,21.4205165 27.654755,20.7448568 27.8451359,20.04 L29.5115217,19.8774457 C29.762074,19.8529846 29.953125,19.6423414 29.953125,19.3905978 L29.953125,16.6419293 C29.953125,16.3899591 29.7616801,16.1792287 29.5108696,16.1550815 L27.8207609,15.992038 C27.633214,15.2857494 27.348425,14.6089502 26.9745652,13.9810598 L28.0491033,12.6834783 C28.2093194,12.490017 28.1969515,12.2066471 28.0204891,12.0278804 L26.1061957,10.0890489 C25.9279928,9.90840686 25.6412427,9.89403396 25.4458696,10.0559511 L24.1452717,11.1330163 C23.5175313,10.7604487 22.8420139,10.4750316 22.1373098,10.2846196 L21.9742663,8.59418478 C21.9500165,8.34362638 21.7395551,8.15238767 21.4878261,8.15217391 L20.5903533,8.15217391 L20.5903533,3.75 C20.5880171,1.67990063 18.9104526,0.00233615327 16.8403533,0 L3.796875,0 C1.72679422,0.00238098048 0.0492559805,1.67991922 0.046875,3.75 L0.046875,32.2826087 C0.0492559805,34.3526895 1.72679422,36.0302277 3.796875,36.0326087 Z M21.1972826,10.725163 C21.2177032,10.937032 21.3727938,11.111373 21.5808424,11.1563315 C22.414546,11.3418562 23.2078092,11.6766772 23.9223098,12.1446196 C24.1015954,12.2602853 24.3351688,12.2463963 24.4994837,12.1102989 L25.7249185,11.0951087 L27.0134511,12.4001902 L25.995,13.6304348 C25.8572148,13.7968111 25.8448879,14.0338716 25.9646739,14.2136413 C26.4348414,14.9242325 26.7685991,15.7161502 26.9488859,16.548913 C26.9939993,16.7568015 27.1683047,16.9116957 27.3800543,16.9320652 L28.9748641,17.0858152 L28.9748641,18.9465489 L27.4040217,19.1005435 C27.1924904,19.1211476 27.0184715,19.2759921 26.9734239,19.4836957 C26.7879707,20.3174086 26.453174,21.1106795 25.9852174,21.825163 C25.8695918,22.0044302 25.88348,22.2379563 26.019538,22.4022554 L27.0361957,23.6299728 L25.7271196,24.9390489 L24.4994837,23.9223913 C24.3330733,23.7845915 24.0959657,23.772297 23.9161957,23.8921467 C23.2055482,24.3622647 22.4136135,24.6960179 21.5808424,24.8763587 C21.3729539,24.9214721 21.2180597,25.0957775 21.1976902,25.3075272 L21.0436141,26.9021739 L19.1834511,26.9021739 L19.0297011,25.3074457 C19.0093316,25.095696 18.8544374,24.9213906 18.6465489,24.8762772 C17.8128453,24.6907525 17.0195821,24.3559315 16.3050815,23.8879891 C16.125796,23.7723234 15.8922225,23.7862124 15.7279076,23.9223098 L14.5001902,24.9389674 L13.190788,23.6298913 L14.2075272,22.4021739 C14.345287,22.2357791 14.3575807,21.9987195 14.2377717,21.8189674 C13.767616,21.1083699 13.4338593,20.3164545 13.2535598,19.4836957 C13.2084464,19.2758072 13.0341409,19.120913 12.8223913,19.1005435 L11.227663,18.9467935 L11.227663,17.0862228 L12.8223913,16.9324728 C13.0341409,16.9121033 13.2084464,16.7572091 13.2535598,16.5493207 C13.4390283,15.7154975 13.773852,14.9221176 14.2418478,14.2075272 C14.3574964,14.0282774 14.3436412,13.7947522 14.2076087,13.6304348 L13.1908696,12.4027174 L14.4999457,11.0936413 L15.727663,12.1102989 C15.8940734,12.2480988 16.1311811,12.2603932 16.3109511,12.1405435 C17.0215832,11.670397 17.8135234,11.3366414 18.6463043,11.1563315 C18.8541928,11.1112181 19.009087,10.9369127 19.0294565,10.725163 L19.1834511,9.13043478 L21.0436141,9.13043478 L21.1972826,10.725163 Z M3.796875,0.97826087 L16.8403533,0.97826087 C18.3704348,0.9799681 19.6103852,2.21991846 19.6120924,3.75 L19.6120924,4.89130435 L18.470788,4.89130435 C18.2006488,4.89130435 17.9816576,5.1102955 17.9816576,5.38043478 C17.9816576,5.65057406 18.2006488,5.86956522 18.470788,5.86956522 L19.6120924,5.86956522 L19.6120924,8.15217391 L18.7391576,8.15217391 C18.4872157,8.15218601 18.2764962,8.34356953 18.2523098,8.59434783 L18.0892663,10.284538 C17.3829983,10.47207 16.7062241,10.7568601 16.0783696,11.1307337 L14.780788,10.0561141 C14.5863738,9.89511572 14.3013771,9.90850033 14.1229076,10.0870109 L12.1840761,12.0258424 C12.0056389,12.2043227 11.9922906,12.4892611 12.1532609,12.6836413 L13.2303261,13.9842391 C12.8577821,14.6119726 12.5723403,15.2874559 12.3818478,15.9921196 L10.6914946,16.155163 C10.4407163,16.1793495 10.2493327,16.3900689 10.2493207,16.6420109 L10.2493207,19.3906793 C10.2492908,19.6426525 10.4406852,19.8534193 10.6914946,19.8776087 L12.3816033,20.0406522 C12.5692395,20.7469364 12.8540813,21.4237308 13.227962,22.0516304 L12.1533424,23.349212 C11.9923722,23.5435921 12.0057204,23.8285305 12.1841576,24.0070109 L14.1229891,25.9458424 C14.3014586,26.1243529 14.5864553,26.1377375 14.7808696,25.9767391 L16.0814674,24.8996739 C16.7092873,25.2721967 17.3848905,25.5575331 18.0896739,25.7478261 L18.2527174,27.4382609 C18.2768887,27.6888838 18.4873718,27.8802129 18.7391576,27.8804348 L19.6120924,27.8804348 L19.6120924,29.1847826 L1.02513587,29.1847826 L1.02513587,5.86956522 L14.3131793,5.86956522 C14.5833186,5.86956522 14.8023098,5.65057406 14.8023098,5.38043478 C14.8023098,5.1102955 14.5833186,4.89130435 14.3131793,4.89130435 L1.02513587,4.89130435 L1.02513587,3.75 C1.02688793,2.21993706 2.26681206,0.980012929 3.796875,0.97826087 Z M1.02513587,30.1630435 L19.6120924,30.1630435 L19.6120924,32.2826087 C19.6103852,33.8126902 18.3704348,35.0526406 16.8403533,35.0543478 L3.796875,35.0543478 C2.26681206,35.0525958 1.02688793,33.8126716 1.02513587,32.2826087 L1.02513587,30.1630435 Z"/>
    <path d="M15.91875 5.86956522L16.8248641 5.86956522C17.0950034 5.86956522 17.3139946 5.65057406 17.3139946 5.38043478 17.3139946 5.1102955 17.0950034 4.89130435 16.8248641 4.89130435L15.91875 4.89130435C15.6486107 4.89130435 15.4296196 5.1102955 15.4296196 5.38043478 15.4296196 5.65057406 15.6486107 5.86956522 15.91875 5.86956522zM10.3186141 34.3206522C11.2641016 34.3206522 12.0305707 33.5541831 12.0305707 32.6086957 12.0305707 31.6632082 11.2641016 30.8967391 10.3186141 30.8967391 9.37312665 30.8967391 8.60665761 31.6632082 8.60665761 32.6086957 8.60769098 33.5537548 9.37355502 34.3196188 10.3186141 34.3206522zM10.3186141 31.875C10.7238231 31.875 11.0523098 32.2034867 11.0523098 32.6086957 11.0523098 33.0139046 10.7238231 33.3423913 10.3186141 33.3423913 9.91340521 33.3423913 9.58491848 33.0139046 9.58491848 32.6086957 9.58536776 32.203673 9.91359145 31.8754493 10.3186141 31.875L10.3186141 31.875zM14.2728261 18.0163043C14.2728261 21.2420375 16.8877995 23.8570109 20.1135326 23.8570109 23.3392657 23.8570109 25.9542391 21.2420375 25.9542391 18.0163043 25.9542391 14.7905712 23.3392657 12.1755978 20.1135326 12.1755978 16.889308 12.1792368 14.2764651 14.7920797 14.2728261 18.0163043zM20.1135326 13.1538587C22.7989872 13.1538587 24.9759783 15.3308498 24.9759783 18.0163043 24.9759783 20.7017589 22.7989872 22.87875 20.1135326 22.87875 17.428078 22.87875 15.251087 20.7017589 15.251087 18.0163043 15.254097 15.3320976 17.4293258 13.1568688 20.1135326 13.1538587L20.1135326 13.1538587z"/>
    <path d="M19.125 19.7585054C19.315025 19.9440302 19.6183718 19.9440302 19.8083967 19.7585054L22.6603533 16.9740489C22.7867067 16.8522549 22.8381269 16.6721033 22.7950995 16.5019633 22.7520721 16.3318233 22.6211924 16.1977743 22.4521305 16.1506891 22.2830685 16.1036038 22.1017384 16.1506996 21.9769565 16.2741033L19.4666576 18.7248913 18.2253261 17.5129891C18.0317019 17.3263117 17.723684 17.3309854 17.5358128 17.5234515 17.3479415 17.7159175 17.3507103 18.0239584 17.5420109 18.2130163L19.125 19.7585054zM8.72282609 16.4673913L8.04701087 16.4673913C7.77687159 16.4673913 7.55788043 16.6863825 7.55788043 16.9565217 7.55788043 17.226661 7.77687159 17.4456522 8.04701087 17.4456522L8.72282609 17.4456522C8.99296537 17.4456522 9.21195652 17.226661 9.21195652 16.9565217 9.21195652 16.6863825 8.99296537 16.4673913 8.72282609 16.4673913zM2.93478261 17.4456522L5.88399457 17.4456522C6.15413385 17.4456522 6.373125 17.226661 6.373125 16.9565217 6.373125 16.6863825 6.15413385 16.4673913 5.88399457 16.4673913L2.93478261 16.4673913C2.66464333 16.4673913 2.44565217 16.6863825 2.44565217 16.9565217 2.44565217 17.226661 2.66464333 17.4456522 2.93478261 17.4456522zM8.72282609 20.5434783L5.6013587 20.5434783C5.33121942 20.5434783 5.11222826 20.7624694 5.11222826 21.0326087 5.11222826 21.302748 5.33121942 21.5217391 5.6013587 21.5217391L8.72282609 21.5217391C8.99296537 21.5217391 9.21195652 21.302748 9.21195652 21.0326087 9.21195652 20.7624694 8.99296537 20.5434783 8.72282609 20.5434783zM2.93478261 21.5217391L3.43834239 21.5217391C3.70848167 21.5217391 3.92747283 21.302748 3.92747283 21.0326087 3.92747283 20.7624694 3.70848167 20.5434783 3.43834239 20.5434783L2.93478261 20.5434783C2.66464333 20.5434783 2.44565217 20.7624694 2.44565217 21.0326087 2.44565217 21.302748 2.66464333 21.5217391 2.93478261 21.5217391zM8.39673913 25.1086957C8.39673913 25.3788349 8.61573029 25.5978261 8.88586957 25.5978261L11.1684783 25.5978261C11.4386175 25.5978261 11.6576087 25.3788349 11.6576087 25.1086957 11.6576087 24.8385564 11.4386175 24.6195652 11.1684783 24.6195652L8.88586957 24.6195652C8.61573029 24.6195652 8.39673913 24.8385564 8.39673913 25.1086957zM6.69921196 24.6195652L2.93478261 24.6195652C2.66464333 24.6195652 2.44565217 24.8385564 2.44565217 25.1086957 2.44565217 25.3788349 2.66464333 25.5978261 2.93478261 25.5978261L6.69921196 25.5978261C6.96935124 25.5978261 7.18834239 25.3788349 7.18834239 25.1086957 7.18834239 24.8385564 6.96935124 24.6195652 6.69921196 24.6195652L6.69921196 24.6195652zM6.44021739 13.0434783L9.53804348 13.0434783C9.80818276 13.0434783 10.0271739 12.8244871 10.0271739 12.5543478 10.0271739 12.2842085 9.80818276 12.0652174 9.53804348 12.0652174L6.44021739 12.0652174C6.17007811 12.0652174 5.95108696 12.2842085 5.95108696 12.5543478 5.95108696 12.8244871 6.17007811 13.0434783 6.44021739 13.0434783zM2.93478261 13.0434783L4.25355978 13.0434783C4.52369906 13.0434783 4.74269022 12.8244871 4.74269022 12.5543478 4.74269022 12.2842085 4.52369906 12.0652174 4.25355978 12.0652174L2.93478261 12.0652174C2.66464333 12.0652174 2.44565217 12.2842085 2.44565217 12.5543478 2.44565217 12.8244871 2.66464333 13.0434783 2.93478261 13.0434783z"/>
  </g>
</svg>
