<svg xmlns="http://www.w3.org/2000/svg" width="30" height="27" viewBox="0 0 30 27">
  <path d="M11.8364902 19.2546801C11.7231722 19.2546801 11.6090249 19.2157097 11.5158829 19.1363871L8.31091542 16.4073555C8.20036118 16.3131081 8.13679245 16.175468 8.13679245 16.0300892 8.13679245 15.8849867 8.20063755 15.7473467 8.31091542 15.6530992L11.5158829 12.9240676C11.7240013 12.7466281 12.0365935 12.7717792 12.214033 12.9798976 12.3911962 13.1882923 12.3663215 13.5008844 12.1579267 13.6780476L9.39600531 16.0300892 12.1579267 18.3821307C12.3663215 18.5595703 12.3911962 18.8721624 12.214033 19.0802808 12.1159161 19.1955336 11.9766178 19.2546801 11.8364902 19.2546801zM18.1635098 19.2546801C18.0233822 19.2546801 17.8840839 19.1955336 17.7862433 19.0802808 17.6088038 18.8721624 17.6339549 18.5595703 17.8420733 18.3821307L20.6039947 16.0300892 17.8420733 13.6780476C17.6339549 13.5008844 17.6088038 13.1882923 17.7862433 12.9798976 17.9634065 12.7717792 18.2762751 12.7466281 18.4841171 12.9240676L21.6890846 15.6530992C21.7996388 15.7473467 21.8632075 15.8849867 21.8632075 16.0300892 21.8632075 16.175468 21.7996388 16.3131081 21.6890846 16.4073555L18.4841171 19.1363871C18.3909751 19.2157097 18.2768278 19.2546801 18.1635098 19.2546801L18.1635098 19.2546801zM13.8654371 21.301592C13.8314416 21.301592 13.7971698 21.297999 13.7626216 21.2908129 13.4950804 21.2344303 13.3237213 20.9715876 13.3801039 20.7040463L15.3775428 11.2204267C15.4339254 10.9528854 15.6964917 10.7815264 15.9643094 10.837909 16.2318507 10.8942917 16.4032097 11.1568581 16.3468271 11.4246757L14.3493883 20.9082952C14.3001916 21.1415647 14.0945607 21.301592 13.8654371 21.301592L13.8654371 21.301592z"/>
  <path d="M26.6745283,26.4683447 L3.3254717,26.4683447 C1.49192958,26.4683447 0,24.9766915 0,23.142873 L0,3.3254717 C0,1.49192958 1.49192958,0 3.3254717,0 L26.6745283,0 C28.5080704,0 30,1.49192958 30,3.3254717 L30,23.142873 C30,24.9766915 28.5080704,26.4683447 26.6745283,26.4683447 Z M3.3254717,0.990566038 C2.03806755,0.990566038 0.990566038,2.03806755 0.990566038,3.3254717 L0.990566038,23.142873 C0.990566038,24.4302771 2.03806755,25.4777786 3.3254717,25.4777786 L26.6745283,25.4777786 C27.9619325,25.4777786 29.009434,24.4302771 29.009434,23.142873 L29.009434,3.3254717 C29.009434,2.03806755 27.9619325,0.990566038 26.6745283,0.990566038 L3.3254717,0.990566038 Z"/>
  <path d="M29.504717 7.93088519L.495283019 7.93088519C.221661226 7.93088519 0 7.70922389 0 7.43560217 0 7.16225675.221661226 6.94031915.495283019 6.94031915L29.504717 6.94031915C29.7783388 6.94031915 30 7.16225675 30 7.43560217 30 7.70922389 29.7783388 7.93088519 29.504717 7.93088519zM8.46237467 5.56087854C7.59839328 5.56087854 6.89499191 4.85747717 6.89499191 3.99349571 6.89499191 3.12923788 7.59839328 2.42611288 8.46237467 2.42611288 9.3266325 2.42611288 10.0297575 3.12923788 10.0297575 3.99349571 10.0297575 4.85747717 9.3266325 5.56087854 8.46237467 5.56087854zM8.46237467 3.41667892C8.14453125 3.41667892 7.88555795 3.67537585 7.88555795 3.99349571 7.88555795 4.31161557 8.14453125 4.5703125 8.46237467 4.5703125 8.78049453 4.5703125 9.03919146 4.31161557 9.03919146 3.99349571 9.03919146 3.67537585 8.78049453 3.41667892 8.46237467 3.41667892zM3.64663175 5.54567731C2.78237399 5.54567731 2.07924899 4.84255231 2.07924899 3.97829448 2.07924899 3.11403672 2.78237399 2.41091172 3.64663175 2.41091172 4.51088958 2.41091172 5.21401458 3.11403672 5.21401458 3.97829448 5.21401458 4.84255231 4.51088958 5.54567731 3.64663175 5.54567731zM3.64663175 3.40147776C3.32878833 3.40147776 3.06981502 3.66045106 3.06981502 3.97829448 3.06981502 4.29641434 3.32878833 4.55511127 3.64663175 4.55511127 3.9647516 4.55511127 4.22344854 4.29641434 4.22344854 3.97829448 4.22344854 3.66045106 3.9647516 3.40147776 3.64663175 3.40147776zM13.2781176 5.5758034C12.4141362 5.5758034 11.7110112 4.8726784 11.7110112 4.00842057 11.7110112 3.1444391 12.4141362 2.4413141 13.2781176 2.4413141 14.1423754 2.4413141 14.8455004 3.1444391 14.8455004 4.00842057 14.8455004 4.8726784 14.1423754 5.5758034 13.2781176 5.5758034zM13.2781176 3.43160377C12.9602742 3.43160377 12.7015772 3.69030071 12.7015772 4.00842057 12.7015772 4.32654042 12.9602742 4.58523736 13.2781176 4.58523736 13.5962375 4.58523736 13.8549344 4.32654042 13.8549344 4.00842057 13.8549344 3.69030071 13.5962375 3.43160377 13.2781176 3.43160377z"/>
</svg>
